<svg width="18" height="19" viewBox="0 0 18 19" fill="none" xmlns="http://www.w3.org/2000/svg">
<path d="M11.14 9.69289L17.3751 3.47142C17.6481 3.19834 17.8015 2.82796 17.8015 2.44176C17.8015 2.05556 17.6481 1.68518 17.3751 1.4121C17.102 1.13901 16.7317 0.985596 16.3455 0.985596C15.9594 0.985596 15.5891 1.13901 15.316 1.4121L9.09544 7.64807L2.87485 1.4121C2.6018 1.13901 2.23147 0.985596 1.84533 0.985596C1.45919 0.985596 1.08886 1.13901 0.815816 1.4121C0.542771 1.68518 0.389376 2.05556 0.389376 2.44176C0.389376 2.82796 0.542771 3.19834 0.815816 3.47142L7.05091 9.69289L0.815816 15.9144C0.679908 16.0492 0.572035 16.2096 0.498419 16.3863C0.424803 16.563 0.386902 16.7526 0.386902 16.944C0.386902 17.1355 0.424803 17.325 0.498419 17.5018C0.572035 17.6785 0.679908 17.8389 0.815816 17.9737C0.950614 18.1096 1.11099 18.2175 1.28769 18.2911C1.46439 18.3648 1.65391 18.4027 1.84533 18.4027C2.03675 18.4027 2.22628 18.3648 2.40298 18.2911C2.57967 18.2175 2.74005 18.1096 2.87485 17.9737L9.09544 11.7377L15.316 17.9737C15.4508 18.1096 15.6112 18.2175 15.7879 18.2911C15.9646 18.3648 16.1541 18.4027 16.3455 18.4027C16.537 18.4027 16.7265 18.3648 16.9032 18.2911C17.0799 18.2175 17.2403 18.1096 17.3751 17.9737C17.511 17.8389 17.6188 17.6785 17.6925 17.5018C17.7661 17.325 17.804 17.1355 17.804 16.944C17.804 16.7526 17.7661 16.563 17.6925 16.3863C17.6188 16.2096 17.511 16.0492 17.3751 15.9144L11.14 9.69289Z" fill="#D1D1D1"/>
</svg>
