<svg width="16" height="20" viewBox="0 0 16 20" fill="none" xmlns="http://www.w3.org/2000/svg">
<path d="M0.822075 16.4006C0.166819 12.8418 2.7035 10.7909 4.19593 9.85678C1.22581 6.86842 2.58388 2.87275 4.19593 1.53731C6.07166 -0.016551 9.42915 -0.722411 11.6214 1.947C14.3284 5.24332 12.7498 8.53878 11.6214 9.85678C12.3494 10.4977 14.8521 12.1637 15.2191 15.588C15.6821 19.9085 1.64115 20.8491 0.822075 16.4006Z" fill="#FCC822"/>
<path d="M0.822075 16.4006C0.166819 12.8418 2.7035 10.7909 4.19593 9.85678C1.22581 6.86842 2.58388 2.87275 4.19593 1.53731C6.07166 -0.016551 9.42915 -0.722411 11.6214 1.947C14.3284 5.24332 12.7498 8.53878 11.6214 9.85678C12.3494 10.4977 14.8521 12.1637 15.2191 15.588C15.6821 19.9085 1.64115 20.8491 0.822075 16.4006Z" stroke="#FCC822" stroke-width="0.29551"/>
</svg>
